<svg class="vector" width="300px" height="300px" xmlns="http://www.w3.org/2000/svg" baseProfile="full" version="1.1" style="width: 300px; height: 300px; stroke: rgb(0, 0, 0); stroke-width: 10; fill: none; stroke-linecap: square;">

<defs>
	<clipPath id="clip-main"><circle cx="150" cy="150" r="150.5" stroke-width="0" /></clipPath>
</defs>

<circle fill="white" id="bg" cx="150" cy="150" r="150" stroke-width="0" />

<g transform="translate(0,0)" clip-path="url(#clip-main)">
	<path
	stroke="black"
	class="main"
	d="M285,240 L150,240  A-90,-90 0 0,1 60,150  A90,-90 0 0,1 150,60  A90,90 0 0,1 240,150  L240,195  A45,45 0 0,0 285,240  A-45,-45 0 0,1 240,195  L240,150  A-45,-45 0 0,0 195,105  A-45,45 0 0,0 150,150  A45,45 0 0,0 195,195  A30,30 0 0,1 225,225  L225,240  L150,240  A-45,-45 0 0,1 105,195  A45,-45 0 0,1 150,150  "
	stroke-dasharray="50" pathLength="50">
		<animate attributeType="XML" attributeName="stroke-dashoffset"
		dur="8s" repeatCount="indefinite"
		values="50;0;0;-50"
		/>
	</path>

	<path
	stroke="black"
	class="extra"
	d="M285,240 L150,240  A-90,-90 0 0,1 60,150  A90,-90 0 0,1 150,60  A90,90 0 0,1 240,150  L240,195  A45,45 0 0,0 285,240  A-45,-45 0 0,1 240,195  L240,150  A-45,-45 0 0,0 195,105  A-45,45 0 0,0 150,150  A45,45 0 0,0 195,195  A30,30 0 0,1 225,225  L225,240  L150,240  A-45,-45 0 0,1 105,195  A45,-45 0 0,1 150,150  "
	stroke-dasharray="50" pathLength="50">
		<animate attributeType="XML" attributeName="stroke-dashoffset"
		dur="8s" repeatCount="indefinite"
		values="47;-3;-3;-53"
		/>
	</path>

	<path
	stroke="black"
	class="extra"
	d="M285,240 L150,240  A-90,-90 0 0,1 60,150  A90,-90 0 0,1 150,60  A90,90 0 0,1 240,150  L240,195  A45,45 0 0,0 285,240  A-45,-45 0 0,1 240,195  L240,150  A-45,-45 0 0,0 195,105  A-45,45 0 0,0 150,150  A45,45 0 0,0 195,195  A30,30 0 0,1 225,225  L225,240  L150,240  A-45,-45 0 0,1 105,195  A45,-45 0 0,1 150,150  "
	stroke-dasharray="50" pathLength="50">
		<animate attributeType="XML" attributeName="stroke-dashoffset"
		dur="8s" repeatCount="indefinite"
		values="53;3;3;-47"
		/>
	</path>
</g>

<script>
	// alert("What are you doing here?");
</script>

<style>
	:root {
		--bg: #00adee;
		--fg: white;
	}
	@media only screen and (min-width: 0px) and (max-width: 40px) {
		:root {
			--bg: black;
			--fg: white;
		}
	}
	@media only screen and (min-width: 41px) and (max-width: 60px) {
		:root {
			--bg: transparent;
			--fg: black;
		}
	}

	#bg {
		fill: var(--bg);
	}
	.main,.extra {
		stroke: var(--fg);
	}
	.extra {
		opacity: 0.5;
	}
</style>

</svg>