<?xml version="1.0" encoding="UTF-8" standalone="no"?>
<svg
   xmlns:dc="http://purl.org/dc/elements/1.1/"
   xmlns:cc="http://creativecommons.org/ns#"
   xmlns:rdf="http://www.w3.org/1999/02/22-rdf-syntax-ns#"
   xmlns:svg="http://www.w3.org/2000/svg"
   xmlns="http://www.w3.org/2000/svg"
   id="svg4978"
   version="1.1"
   viewBox="0 0 45.610188 25.8125"
   height="97.559052"
   width="172.38496">
  <defs
     id="defs4972" />
  <metadata
     id="metadata4975">
    <rdf:RDF>
      <cc:Work
         rdf:about="">
        <dc:format>image/svg+xml</dc:format>
        <dc:type
           rdf:resource="http://purl.org/dc/dcmitype/StillImage" />
        <dc:title></dc:title>
      </cc:Work>
    </rdf:RDF>
  </metadata>
  <g
     transform="translate(0.9999998,-272.1875)"
     id="layer1">
    <g
       id="text4487"
       style="font-style:normal;font-variant:normal;font-weight:bold;font-stretch:normal;font-size:11.28888893px;line-height:1.25;font-family:Overpass;-inkscape-font-specification:'Overpass Bold';letter-spacing:-1.25677085px;word-spacing:0px;fill:#000000;fill-opacity:1;stroke:none;stroke-width:0.26458332"
       aria-label="ade"
       transform="matrix(2.8738067,0,0,2.8738067,-2.546124,222.4605)">
      <path
         id="path4907"
         style="font-style:normal;font-variant:normal;font-weight:bold;font-stretch:normal;font-size:11.28888893px;font-family:Overpass;-inkscape-font-specification:'Overpass Bold';letter-spacing:-1.25677085px;stroke-width:0.26458332"
         d="m 4.5097095,25.937541 v 0 c 0,0 -0.8955852,8e-6 -1.5352889,8e-6 -0.6171259,0 -1.121363,-0.16557 -1.5127111,-0.496711 -0.3838222,-0.338667 -0.57573335,-0.8128 -0.57573335,-1.4224 0,-0.624652 0.21825185,-1.098785 0.65475555,-1.4224 0.4440297,-0.323615 0.9783704,-0.485423 1.6030222,-0.485423 h 1.3659556 v 0 c 0.019939,-0.807902 -0.3957146,-1.043843 -1.1288889,-1.049866 -0.6246519,0 -2.1223111,-0.01291 -2.1223111,-0.01291 v -1.14955 c 0,0 1.3772445,-2.98e-4 2.2577778,-2.98e-4 0.301037,0 0.5644444,0.02634 0.7902222,0.07902 0.2333037,0.04515 0.4703704,0.139228 0.7112,0.282223 0.2483555,0.142992 0.4402666,0.36877 0.5757333,0.677333 0.1354667,0.308563 0.2032,0.692385 0.2032,1.151467 v 3.849505 z m -1.2869333,-1.162748 1.2869333,-2e-6 v -1.530238 c 0,0 -0.714963,-0.005 -1.1514667,-0.005 -0.3537185,0 -0.6397037,0.06397 -0.8579555,0.191911 -0.2182519,0.127941 -0.3273778,0.323615 -0.3273778,0.587023 0,0.233303 0.090311,0.417688 0.2709333,0.553155 0.1806223,0.135467 0.4402667,0.2032 0.7789334,0.2032 z" />
      <path
         id="path4909"
         style="letter-spacing:-1.41552079px"
         d="m 8.2304567,25.937549 c -0.7375408,0 -1.3208001,-0.26717 -1.7497778,-0.801511 -0.4289778,-0.534341 -0.6434667,-1.275645 -0.6434667,-2.223912 0,-0.925689 0.2220148,-1.659466 0.6660444,-2.201333 0.4440297,-0.541867 1.019763,-0.8128 1.7272001,-0.8128 0.5569185,0 1.2982222,2.98e-4 1.2982222,2.98e-4 v -2.24679 l 1.3208001,3e-6 v 8.286037 H 9.5286789 v 0 c 0,0 -0.7187259,8e-6 -1.2982222,8e-6 z m 0.2032,-1.170812 c 0.4891851,0 1.0950222,0.0081 1.0950222,0.0081 v -3.726996 c 0,0 -0.60167,1.8e-5 -1.0833292,1.8e-5 -0.4064,0 -0.7341819,0.257482 -0.9599597,0.566045 -0.2182519,0.301037 -0.3273778,0.733778 -0.3273778,1.298222 0,0.534341 0.1128889,0.963319 0.3386667,1.286934 0.2257777,0.316089 0.5381037,0.567677 0.9369778,0.567677 z" />
      <path
         id="path4911"
         style="font-style:normal;font-variant:normal;font-weight:bold;font-stretch:normal;font-size:11.28888893px;font-family:Overpass;-inkscape-font-specification:'Overpass Bold';letter-spacing:-1.25677085px;stroke-width:0.26458332"
         d="m 13.543357,25.937549 c -0.820326,0 -1.471319,-0.26717 -1.952978,-0.801511 -0.474133,-0.541867 -0.7112,-1.283171 -0.7112,-2.223912 0,-0.933215 0.24083,-1.666992 0.722489,-2.201333 0.481659,-0.541867 1.128889,-0.8128 1.941689,-0.8128 0.737541,0 1.339615,0.229541 1.806222,0.688622 0.474133,0.459082 0.7112,1.132652 0.7112,2.020711 0,0.308563 2.56e-4,0.8128 2.56e-4,0.8128 h -3.872349 c 0.02258,0.4064 0.16181,0.733778 0.417689,0.982134 0.263407,0.248355 0.575733,0.372533 0.936978,0.372533 l 2.013236,-2e-6 v 1.16275 c 0,0 -1.147755,8e-6 -2.013236,8e-6 z m -1.343378,-3.612445 h 2.551289 c -0.03011,-0.413926 -0.158048,-0.726252 -0.383823,-0.936978 -0.225777,-0.218251 -0.500473,-0.327377 -0.824088,-0.327377 -0.376297,0 -0.688623,0.105363 -0.936978,0.316089 -0.24083,0.2032 -0.376297,0.519289 -0.4064,0.948266 z" />
    </g>
  </g>
</svg>
