<?xml version="1.0" encoding="UTF-8" standalone="no"?>
<svg
   xmlns:dc="http://purl.org/dc/elements/1.1/"
   xmlns:cc="http://creativecommons.org/ns#"
   xmlns:rdf="http://www.w3.org/1999/02/22-rdf-syntax-ns#"
   xmlns:svg="http://www.w3.org/2000/svg"
   xmlns="http://www.w3.org/2000/svg"
   id="svg5040"
   version="1.1"
   viewBox="0 0 42.68565 24.341667"
   height="92"
   width="161.33159">
  <defs
     id="defs5034" />
  <metadata
     id="metadata5037">
    <rdf:RDF>
      <cc:Work
         rdf:about="">
        <dc:format>image/svg+xml</dc:format>
        <dc:type
           rdf:resource="http://purl.org/dc/dcmitype/StillImage" />
        <dc:title></dc:title>
      </cc:Work>
    </rdf:RDF>
  </metadata>
  <g
     transform="translate(-104.78415,53.142028)"
     id="layer1">
    <g
       id="text4487"
       style="font-style:normal;font-variant:normal;font-weight:normal;font-stretch:normal;font-size:10.58333302px;line-height:1.25;font-family:Prata;-inkscape-font-specification:Prata;letter-spacing:-1.32291663px;word-spacing:0px;opacity:1;fill:#000000;fill-opacity:1;stroke:none;stroke-width:0.26458332"
       aria-label="ade"
       transform="matrix(2.7777778,0,0,2.7777778,63.605989,-80.019712)">
      <path
         id="path4993"
         style="font-style:normal;font-variant:normal;font-weight:normal;font-stretch:normal;line-height:1.25;font-family:Prata;-inkscape-font-specification:Prata;letter-spacing:-1.32291663px;stroke-width:0.26458332"
         d="m 16.464554,18.343716 c -0.451555,0 -0.821972,-0.116417 -1.11125,-0.34925 -0.289277,-0.239889 -0.433916,-0.592666 -0.433916,-1.058333 0,-0.663223 0.278694,-1.132417 0.836083,-1.407584 0.557389,-0.282222 1.202972,-0.423333 1.93675,-0.423333 h 0.709083 v -0.814917 c 0,-0.366889 -0.04233,-0.649111 -0.127,-0.846666 -0.07761,-0.204611 -0.201084,-0.345723 -0.370417,-0.423334 -0.169333,-0.08467 -0.398639,-0.09631 -0.687916,-0.09631 -0.331611,0 -0.578556,0.03634 -0.740833,0.17039 -0.162278,0.127 -0.243417,0.299861 -0.243417,0.518583 0,0.204611 0.09878,0.338667 0.296333,0.402167 0,0.176389 -0.06703,0.331611 -0.201083,0.465666 -0.134055,0.134056 -0.292805,0.201084 -0.47625,0.201084 -0.197555,0 -0.356305,-0.05292 -0.47625,-0.15875 -0.119945,-0.112889 -0.179917,-0.282223 -0.179917,-0.508 0,-0.409223 0.204611,-0.737306 0.613834,-0.98425 0.409222,-0.246945 0.92075,-0.370417 1.534583,-0.370417 1.411111,0 2.116666,0.613833 2.116666,1.8415 v 3.026833 c 0,0.155223 0.03175,0.275167 0.09525,0.359834 0.07056,0.07761 0.169334,0.13502 0.296334,0.13502 0.119944,0 0.215194,-0.05741 0.28575,-0.13502 0.07056,-0.08467 0.105833,-0.197556 0.105833,-0.338667 h 0.22225 c 0,0.246945 -0.08114,0.440972 -0.243417,0.582083 -0.155222,0.141111 -0.373944,0.211667 -0.656166,0.211667 -0.324556,0 -0.599723,-0.09172 -0.8255,-0.275167 -0.218723,-0.1905 -0.331612,-0.483305 -0.338667,-0.878416 -0.169333,0.359833 -0.430389,0.642055 -0.783167,0.846666 -0.345722,0.204611 -0.73025,0.306917 -1.153583,0.306917 z m 0.582083,-0.465667 c 0.1905,0 0.384528,-0.05644 0.582084,-0.169333 0.204611,-0.112889 0.377472,-0.275166 0.518583,-0.486833 0.141111,-0.218723 0.225778,-0.479778 0.254,-0.783167 v -1.100667 h -0.709083 c -0.578555,0 -1.012472,0.130528 -1.30175,0.391584 -0.282222,0.254 -0.423333,0.613833 -0.423333,1.0795 0,0.388055 0.09172,0.663222 0.275166,0.8255 0.183445,0.162277 0.451556,0.243416 0.804333,0.243416 z" />
      <path
         id="path4995"
         style="font-style:normal;font-variant:normal;font-weight:normal;font-stretch:normal;line-height:1.25;font-family:Prata;-inkscape-font-specification:Prata;letter-spacing:-1.32291663px;stroke-width:0.26458332"
         d="m 22.088603,18.343716 c -0.500944,0 -0.941916,-0.116417 -1.322916,-0.34925 -0.381,-0.239889 -0.677333,-0.5715 -0.889,-0.994833 -0.211667,-0.430389 -0.3175,-0.931334 -0.3175,-1.502834 0,-0.5715 0.105833,-1.068917 0.3175,-1.49225 0.211667,-0.430389 0.508,-0.762 0.889,-0.994833 0.381,-0.232833 0.821972,-0.34925 1.322916,-0.34925 0.409223,0 0.765528,0.109361 1.068917,0.328083 0.303389,0.211667 0.543278,0.504472 0.719667,0.878417 v -3.77825 L 23.136353,9.9828829 V 9.7712162 h 1.799167 v 8.1491668 l 0.740833,0.105833 v 0.317495 h -1.799166 v -1.206495 c -0.176389,0.373945 -0.416278,0.670278 -0.719667,0.889 -0.303389,0.211667 -0.659694,0.3175 -1.068917,0.3175 z m 0.105834,-0.317202 c 0.310444,0 0.589138,-0.03557 0.836083,-0.211965 0.254,-0.183444 0.455083,-0.423333 0.60325,-0.719666 0.155222,-0.303389 0.236361,-0.631473 0.243417,-0.98425 v -1.217084 c -0.0071,-0.352777 -0.08819,-0.677333 -0.243417,-0.973666 -0.148167,-0.303389 -0.34925,-0.543278 -0.60325,-0.719667 -0.246945,-0.183445 -0.525639,-0.275167 -0.836083,-0.275167 -0.980722,0 -1.471083,0.680861 -1.471083,2.042584 v 1.058333 c 0,1.368778 0.490361,2.000548 1.471083,2.000548 z" />
      <path
         id="path4997"
         style="font-style:normal;font-variant:normal;font-weight:normal;font-stretch:normal;line-height:1.25;font-family:Prata;-inkscape-font-specification:Prata;letter-spacing:-1.32291663px;stroke-width:0.26458332"
         d="m 27.830888,18.343716 c -0.522111,0 -0.994833,-0.116417 -1.418166,-0.34925 -0.423333,-0.239889 -0.758472,-0.575028 -1.005417,-1.005417 -0.246944,-0.430389 -0.370416,-0.927805 -0.370416,-1.49225 0,-0.564444 0.119944,-1.058333 0.359833,-1.481666 0.246945,-0.430389 0.575028,-0.762001 0.98425,-0.994834 0.416277,-0.239889 0.878416,-0.359833 1.386416,-0.359833 0.4445,0 0.843139,0.09878 1.195917,0.296333 0.352778,0.197556 0.627945,0.472723 0.8255,0.8255 0.197555,0.345723 0.299861,1.104186 0.306917,1.555742 h -3.894667 v 0.687925 c 0,0.620889 0.137583,1.125361 0.41275,1.513417 0.282222,0.381 0.687916,0.488818 1.217083,0.488818 0.486833,0 0.917222,-0.0549 1.291167,-0.330068 0.373945,-0.275167 0.60325,-0.631472 0.687917,-1.068917 h 0.243416 c -0.09878,0.522111 -0.349249,0.938389 -0.751416,1.248833 -0.402167,0.310445 -0.892528,0.465667 -1.471084,0.465667 z m 1.979083,-3.238505 c -0.02616,-1.383891 -0.846666,-2.146335 -2.044898,-2.18503 -0.47261,-0.01031 -0.847879,0.138924 -1.108934,0.470535 -0.261056,0.331611 -0.409223,1.164161 -0.4445,1.714495 z" />
    </g>
  </g>
</svg>
